<?xml version="1.0" standalone="no"?>
<!DOCTYPE svg PUBLIC "-//W3C//DTD SVG 20010904//EN"
 "http://www.w3.org/TR/2001/REC-SVG-20010904/DTD/svg10.dtd">
<svg version="1.0" xmlns="http://www.w3.org/2000/svg"
 width="2065.000000pt" height="400.000000pt" viewBox="0 0 2065.000000 400.000000"
 preserveAspectRatio="xMidYMid meet">

<g transform="translate(0.000000,400.000000) scale(0.100000,-0.100000)"
fill="#000000" stroke="none">
<path d="M18510 2888 c-287 -186 -515 -341 -527 -356 -29 -35 -12 -66 188
-356 111 -160 213 -303 227 -318 15 -17 36 -28 51 -28 17 0 87 42 194 115 101
70 172 113 180 109 54 -33 78 -63 98 -122 18 -54 19 -66 8 -77 -27 -26 -434
-345 -441 -345 -4 0 -9 8 -12 18 -43 152 -59 191 -101 244 -55 70 -147 131
-240 161 -62 20 -90 22 -250 21 -183 -2 -276 -2 -445 -1 -80 1 -108 -3 -172
-26 -73 -27 -82 -28 -154 -18 -41 6 -162 11 -268 11 -186 0 -197 -1 -290 -30
-125 -38 -173 -67 -273 -162 -56 -53 -90 -78 -106 -78 -22 0 -72 31 -88 53 -9
12 45 91 93 138 50 48 74 107 83 199 12 137 -32 241 -117 275 -91 37 -303 26
-370 -19 -39 -26 -84 -88 -99 -138 -7 -21 -24 -52 -40 -70 -25 -30 -29 -31
-41 -17 -8 11 -56 24 -138 39 -180 33 -296 42 -455 37 -120 -4 -153 -9 -232
-35 -156 -50 -213 -97 -287 -236 -49 -91 -61 -103 -84 -83 -32 28 -98 55 -163
67 -35 6 -86 17 -114 25 -27 7 -127 16 -222 19 -97 3 -182 11 -197 17 -14 7
-37 31 -51 55 -36 62 -87 79 -208 71 -50 -4 -112 -12 -137 -20 -40 -12 -48
-20 -75 -72 -49 -95 -26 -90 -445 -90 l-366 0 -40 -28 c-21 -15 -62 -46 -91
-70 -80 -65 -95 -68 -199 -40 -79 21 -105 23 -229 20 -107 -4 -153 -9 -196
-25 -68 -24 -84 -18 -168 68 -47 48 -65 59 -109 69 -70 15 -90 14 -144 -4 -72
-25 -178 -143 -178 -198 0 -30 -39 -184 -61 -240 -30 -77 -66 -99 -87 -52 -18
38 -58 51 -197 64 -194 18 -267 29 -277 39 -14 14 -38 118 -38 163 0 22 8 44
21 58 19 20 28 22 63 16 177 -29 296 -45 338 -45 47 0 105 21 120 44 4 6 8 99
7 206 0 207 -2 220 -57 315 -40 69 -76 86 -194 92 -208 11 -279 -28 -332 -182
-33 -95 -38 -106 -58 -118 -11 -7 -21 -4 -36 11 -12 12 -26 22 -31 22 -4 0
-28 25 -52 56 -103 132 -204 246 -228 259 -65 33 -503 58 -624 35 -108 -20
-109 -22 -101 -254 5 -130 3 -218 -5 -276 l-12 -86 -37 1 c-22 0 -60 13 -92
31 -103 57 -287 90 -449 81 -104 -6 -375 -42 -392 -52 -4 -3 -20 -3 -35 1 -42
11 -55 58 -63 232 -6 148 -8 154 -31 173 -66 50 -223 74 -335 50 -170 -37
-232 -57 -245 -81 -5 -9 -13 -67 -19 -128 -5 -61 -12 -115 -15 -121 -4 -7 -29
-8 -64 -5 -31 3 -83 1 -114 -5 -76 -14 -195 -70 -245 -114 -85 -77 -117 -69
-153 38 -30 90 -54 109 -143 113 -65 3 -76 1 -115 -25 -23 -15 -44 -34 -47
-43 -3 -8 -14 -21 -26 -28 -18 -12 -29 -9 -92 23 -146 74 -186 85 -324 85
-203 0 -392 -57 -592 -179 -87 -53 -148 -76 -174 -65 -8 3 -25 29 -36 57 -23
57 -75 256 -85 327 -17 110 -69 170 -120 136 -40 -25 -178 -319 -226 -478 -57
-191 -81 -239 -126 -252 -21 -6 -44 14 -127 118 -21 26 -201 293 -262 389 -5
8 -37 52 -70 97 -33 46 -70 98 -82 116 -26 37 -60 64 -84 64 -28 0 -47 -33
-72 -130 -20 -77 -26 -129 -32 -275 -3 -99 -10 -211 -16 -250 -11 -80 -48
-215 -60 -215 -4 0 -21 25 -39 57 -61 107 -238 257 -408 344 -80 42 -252 89
-322 89 -55 0 -155 -50 -249 -124 -46 -36 -86 -66 -91 -66 -4 0 -46 18 -92 40
-73 35 -96 40 -198 50 -63 5 -167 10 -230 10 -130 0 -143 5 -129 53 10 36 20
44 77 58 23 7 56 24 72 39 30 28 30 28 30 142 0 110 -1 116 -27 150 -16 20
-47 47 -70 61 -48 29 -46 22 -63 227 -13 142 -35 223 -73 264 -12 13 -46 33
-76 46 -72 29 -143 24 -201 -14 -64 -42 -91 -111 -106 -271 -7 -71 -17 -142
-22 -156 l-10 -26 -204 -6 c-397 -14 -635 -27 -748 -42 -87 -12 -154 -14 -276
-9 -158 7 -162 6 -216 -18 -152 -70 -97 -246 112 -353 53 -28 61 -29 270 -36
361 -14 363 -14 382 -101 5 -24 13 -315 17 -648 7 -658 6 -645 65 -699 21 -20
39 -25 105 -29 73 -4 84 -2 126 22 25 15 56 44 70 64 34 53 82 195 95 283 17
120 15 681 -4 824 -32 244 -22 285 76 293 59 5 110 -13 127 -46 19 -36 34
-355 36 -792 1 -245 6 -458 10 -475 5 -16 19 -47 31 -67 20 -31 31 -38 70 -44
26 -4 89 -4 141 0 172 12 234 35 247 93 4 16 10 118 15 228 6 142 13 210 24
236 35 84 86 67 147 -48 22 -43 43 -89 47 -103 10 -41 84 -212 110 -253 37
-59 93 -79 238 -87 127 -7 129 -8 245 -75 36 -21 81 -42 100 -47 19 -6 139
-14 265 -18 134 -5 251 -14 279 -22 43 -11 51 -17 58 -45 4 -17 21 -42 38 -56
27 -23 38 -25 197 -32 212 -10 338 -2 364 21 29 26 37 68 44 229 5 109 12 165
26 205 11 30 22 78 25 105 14 119 58 149 142 97 69 -42 161 -82 189 -82 43 0
93 31 139 87 24 30 44 59 44 64 0 15 81 99 95 99 7 0 27 -27 44 -60 24 -44 34
-81 42 -147 6 -48 17 -122 25 -163 9 -41 22 -111 30 -155 22 -122 44 -192 69
-219 28 -31 93 -40 247 -34 178 6 208 34 208 196 0 50 3 98 6 107 14 35 63 42
304 46 l235 4 12 -40 c7 -22 15 -61 18 -87 5 -35 15 -57 38 -82 29 -30 40 -35
101 -41 76 -8 202 -1 256 16 19 5 86 10 147 9 123 0 239 20 274 49 19 15 22
28 23 92 1 41 -5 150 -13 243 -7 93 -11 201 -8 240 6 82 62 263 102 331 52 89
201 124 264 61 l24 -25 -11 -118 c-7 -65 -21 -147 -33 -183 -18 -56 -21 -97
-26 -310 -6 -288 -1 -318 47 -342 69 -35 435 -17 486 23 6 5 21 40 34 78 l24
69 31 -15 c16 -9 36 -24 42 -34 50 -69 136 -140 233 -189 60 -31 72 -34 160
-34 141 -1 229 33 358 137 53 43 124 105 157 137 70 67 105 89 105 65 0 -8 4
-15 9 -15 13 0 29 -80 41 -210 14 -151 27 -208 52 -221 26 -14 206 -2 328 21
52 10 113 21 135 25 43 7 58 13 210 86 91 43 108 55 190 143 50 52 108 116
131 142 38 43 43 46 70 37 25 -8 30 -17 40 -69 7 -32 17 -101 23 -153 6 -51
15 -99 21 -107 7 -7 33 -16 58 -19 26 -3 92 -13 148 -21 81 -13 154 -15 365
-11 352 6 351 6 357 172 3 71 -1 125 -12 173 -28 124 -17 201 34 247 l22 20
21 -27 c12 -15 39 -38 61 -53 33 -22 43 -25 68 -16 51 18 85 49 114 107 46 91
112 129 187 107 43 -12 93 -88 102 -157 4 -28 11 -61 16 -74 5 -12 18 -87 29
-165 35 -239 61 -288 158 -301 29 -4 81 -4 115 0 57 6 66 10 103 50 45 48 71
54 127 30 27 -11 136 -14 552 -14 481 0 523 1 594 19 116 30 115 28 118 226 3
194 8 251 29 313 31 95 85 124 152 84 72 -43 158 -214 178 -353 20 -135 58
-255 89 -280 49 -37 135 -43 520 -32 264 7 373 14 410 25 28 8 83 24 123 35
133 38 192 72 282 159 l84 80 27 -21 c18 -14 33 -41 43 -77 38 -132 37 -132
296 -127 238 4 254 8 289 82 26 55 52 59 126 15 158 -92 204 -103 397 -97 141
5 162 8 273 43 66 20 138 37 160 36 22 0 106 -1 186 -3 130 -2 149 -1 179 17
19 11 37 31 41 44 4 14 8 81 8 150 2 140 18 240 46 270 43 47 138 47 198 0 48
-38 91 -157 149 -406 5 -23 20 -52 33 -64 44 -42 99 -48 380 -43 143 3 563 0
934 -6 679 -11 701 -10 723 23 4 6 8 23 8 37 0 32 -167 735 -181 761 -16 29
-53 32 -248 15 -102 -8 -187 -14 -188 -13 -2 2 84 61 190 132 174 117 192 132
195 160 3 35 -193 871 -209 891 -6 7 -118 92 -249 188 l-237 175 -294 6 -294
6 -145 -94z m599 -58 l86 0 205 -151 c113 -83 208 -158 212 -167 12 -28 179
-743 176 -752 -2 -5 -124 -88 -273 -185 -148 -98 -280 -188 -292 -202 -30 -32
-29 -64 2 -93 l25 -23 287 22 c159 12 300 24 314 27 l25 5 69 -286 c37 -157
66 -287 64 -289 -2 -1 -215 1 -474 5 -258 4 -582 8 -720 8 -137 1 -256 5 -263
9 -8 6 -16 56 -22 148 -6 76 -15 201 -21 277 -10 129 -9 140 8 159 10 11 142
119 294 239 170 134 279 227 282 240 4 13 -9 70 -29 133 -30 93 -41 116 -72
144 -71 64 -154 122 -176 122 -12 0 -91 -48 -176 -106 -85 -59 -160 -107 -167
-108 -10 -1 -339 462 -331 469 1 1 127 85 278 185 l275 183 164 -7 c90 -3 203
-6 250 -6z m-16984 -29 c18 -11 35 -31 42 -53 13 -40 37 -308 28 -317 -10 -9
-249 0 -260 10 -11 11 9 262 26 326 8 31 18 44 38 51 33 12 88 4 126 -17z
m-14 -491 c110 -13 215 -45 229 -70 17 -31 13 -127 -6 -134 -9 -3 -64 -6 -122
-6 -133 0 -626 -19 -669 -26 -28 -4 -33 -10 -39 -40 -4 -20 1 -176 10 -348 20
-379 21 -711 2 -818 -24 -132 -83 -234 -153 -263 -47 -20 -110 -10 -120 19 -4
11 -8 338 -8 726 0 403 -4 711 -9 719 -8 12 -58 13 -318 7 l-308 -7 -56 28
c-31 15 -72 45 -90 67 -34 39 -52 81 -41 92 3 3 77 9 164 14 241 13 666 40
688 44 50 8 769 5 846 -4z m7769 -18 c44 -7 48 -10 142 -136 54 -71 119 -154
146 -185 26 -31 55 -68 65 -83 60 -94 86 -260 87 -538 0 -373 -59 -546 -245
-710 -75 -66 -169 -110 -316 -149 -117 -30 -334 -66 -363 -59 -14 3 -16 49
-21 453 -5 445 -19 1005 -31 1222 -3 62 -3 130 1 153 l7 40 241 -1 c133 0 262
-4 287 -7z m6210 -70 c47 -23 70 -71 70 -148 0 -102 -38 -162 -130 -203 -51
-23 -141 -27 -180 -8 -42 20 -71 93 -71 179 -1 121 39 178 141 199 48 10 127
1 170 -19z m-5295 -28 c15 -16 30 -53 41 -97 16 -70 36 -323 26 -341 -6 -10
-199 1 -265 16 -90 20 -133 119 -125 289 3 57 10 95 20 111 21 32 76 45 191
47 82 1 89 -1 112 -25z m-2740 -179 l0 -170 -50 -3 c-33 -2 -57 -10 -71 -23
-19 -18 -33 -19 -135 -17 l-114 3 -15 30 c-11 23 -15 68 -15 185 l0 155 45 6
c25 3 115 6 200 5 l155 -1 0 -170z m-3729 30 c37 -55 104 -149 149 -210 116
-157 221 -305 294 -417 68 -105 87 -116 115 -72 18 26 119 272 187 454 58 153
121 300 130 300 4 0 10 -8 13 -17 3 -10 21 -74 41 -143 50 -172 102 -332 180
-555 37 -104 100 -287 140 -406 41 -119 90 -249 109 -290 19 -41 40 -96 47
-123 17 -67 9 -71 -153 -80 -152 -7 -153 -7 -163 73 -4 25 -17 111 -31 191
-84 502 -107 627 -120 648 -54 82 -119 32 -240 -183 -21 -38 -43 -77 -49 -86
-5 -9 -20 -34 -32 -55 -43 -74 -50 -80 -78 -64 -13 8 -77 60 -142 115 -130
111 -168 139 -199 149 -19 6 -23 1 -33 -41 -21 -91 -70 -438 -87 -613 -9 -96
-17 -176 -18 -176 -6 -7 -384 -11 -394 -5 -21 13 51 146 87 161 16 6 32 19 35
27 6 14 13 132 36 552 6 106 17 243 24 305 8 61 20 165 26 231 28 294 47 442
55 434 2 -2 34 -49 71 -104z m10934 -10 c74 -8 159 -19 189 -25 29 -5 55 -10
56 -10 9 0 10 -52 1 -57 -6 -4 -79 -6 -163 -4 -193 4 -247 -7 -297 -58 -42
-43 -55 -86 -56 -176 0 -87 11 -102 110 -142 47 -18 92 -37 100 -40 8 -3 43
-26 78 -50 159 -112 282 -340 282 -523 0 -81 -31 -151 -92 -206 -45 -40 -156
-95 -228 -112 -149 -36 -541 -64 -556 -41 -4 8 -10 69 -12 136 l-4 123 33 1
c115 2 258 17 284 30 34 16 70 66 86 118 30 100 20 271 -22 352 -37 74 -137
127 -274 144 -27 4 -64 13 -81 20 -94 39 -148 223 -97 335 25 57 88 114 167
151 47 22 85 31 161 37 149 14 187 13 335 -3z m-13139 -234 c0 -97 4 -196 7
-221 7 -43 9 -45 44 -48 21 -2 41 2 48 10 7 7 35 58 64 113 l52 100 94 5 c52
3 142 2 200 -1 124 -6 153 -20 182 -88 62 -146 139 -342 147 -381 6 -25 11
-159 11 -297 l0 -253 -26 -6 c-14 -4 -56 -4 -92 -1 -60 5 -69 8 -94 38 -15 18
-33 49 -39 68 -17 53 -117 297 -146 359 -14 30 -39 69 -55 88 l-30 34 -114 0
c-95 0 -116 -3 -121 -16 -3 -9 -6 -151 -7 -317 l-1 -302 -80 -7 c-45 -3 -105
-11 -135 -16 -30 -6 -58 -8 -62 -5 -11 6 -10 41 2 63 13 25 3 50 -21 50 -10 0
-25 11 -34 23 -13 21 -15 97 -13 603 l3 579 85 5 c143 8 130 26 131 -179z
m11432 132 c3 -5 -4 -53 -15 -108 -22 -112 -19 -196 8 -226 12 -13 31 -19 59
-19 35 0 44 4 53 25 7 14 12 50 12 79 0 81 17 95 120 108 192 22 427 -13 521
-78 108 -74 192 -292 239 -619 l19 -130 -24 -18 c-30 -22 -31 -36 -6 -68 14
-19 19 -44 21 -119 5 -146 3 -159 -22 -169 -31 -11 -238 -23 -238 -14 -1 90
-13 195 -29 258 -44 170 -157 352 -250 399 -41 22 -121 30 -168 17 -51 -14
-94 -63 -125 -141 -19 -50 -21 -76 -22 -263 -1 -199 -2 -208 -21 -213 -11 -3
-72 -3 -135 -2 l-115 3 -3 173 -2 172 -39 24 c-32 20 -41 34 -54 83 -23 80
-22 93 7 93 44 0 51 22 51 169 0 119 -4 147 -27 223 -27 90 -47 289 -34 342 6
26 7 26 111 26 57 0 106 -3 108 -7z m-6736 -27 c4 -6 8 -30 9 -54 2 -23 8 -57
13 -75 6 -18 18 -57 27 -87 29 -99 94 -227 121 -239 33 -15 59 -14 95 5 26 13
29 19 23 42 -4 15 -9 52 -12 83 -9 104 64 210 174 252 59 23 145 32 171 18 25
-14 55 -104 50 -153 -3 -31 -6 -33 -64 -48 -146 -39 -229 -140 -286 -352 -29
-108 -31 -334 -4 -516 10 -67 15 -129 12 -137 -5 -13 -26 -15 -128 -13 l-123
3 -3 73 c-3 66 -5 74 -30 89 -15 10 -30 22 -34 28 -4 5 -8 132 -8 281 0 245
-2 277 -20 335 -27 82 -38 170 -44 341 l-5 137 30 -1 c16 -1 33 -6 36 -12z
m-440 -19 c73 -38 150 -157 260 -403 l68 -149 6 -160 c11 -256 10 -583 -1
-590 -19 -12 -187 -18 -193 -7 -4 5 -14 86 -22 178 -16 185 -23 232 -36 240
-18 11 -53 -10 -126 -73 -104 -91 -118 -95 -313 -100 -176 -5 -248 3 -261 27
-51 101 -259 679 -259 722 0 54 109 157 230 218 93 47 276 98 410 114 72 9
205 -1 237 -17z m9309 -31 c6 -6 45 -38 87 -71 42 -33 77 -64 77 -70 0 -5 -19
-23 -41 -40 -23 -16 -45 -41 -50 -54 -5 -13 -13 -105 -18 -205 -5 -100 -11
-186 -12 -191 -1 -6 3 -28 9 -50 15 -50 16 -140 2 -166 -25 -46 -68 -5 -76 72
-8 79 -30 129 -77 174 -23 22 -63 72 -90 111 -26 40 -64 86 -84 103 -48 41
-188 150 -229 179 -38 26 -59 72 -50 109 4 16 7 33 8 40 1 6 29 19 62 28 55
16 74 16 196 5 157 -15 206 -10 222 24 10 24 40 25 64 2z m-12287 -12 c258
-65 516 -294 514 -457 0 -26 -6 -53 -12 -61 -16 -19 -73 -26 -272 -35 -93 -4
-171 -10 -174 -13 -6 -5 10 -219 21 -294 6 -42 19 -44 267 -44 l200 0 -5 -137
c-2 -76 -10 -148 -16 -159 -9 -18 -26 -23 -104 -33 -150 -18 -456 -34 -514
-26 -68 8 -105 43 -160 152 l-39 76 -6 251 -6 251 -42 100 c-54 126 -61 183
-31 253 42 97 174 192 269 192 25 0 74 -7 110 -16z m14119 2 c1 -2 -3 -17 -9
-35 -16 -46 -5 -168 17 -192 20 -22 66 -25 82 -6 6 7 10 46 9 88 -2 84 14 122
61 140 44 17 357 12 425 -6 145 -38 225 -149 261 -362 14 -81 48 -442 60 -644
5 -72 3 -89 -10 -100 -16 -13 -198 -29 -213 -19 -17 11 -30 51 -46 136 -31
174 -48 240 -75 294 -49 97 -89 120 -205 120 -118 0 -174 -16 -216 -62 -50
-53 -62 -105 -65 -293 l-3 -160 -107 -3 c-106 -3 -106 -3 -101 20 47 198 49
214 54 453 6 284 -7 404 -62 538 -18 46 -29 86 -25 92 7 9 158 9 168 1z m-481
-40 c50 -7 112 -22 137 -31 45 -17 46 -19 46 -62 0 -48 22 -112 46 -129 47
-36 68 -458 30 -619 -43 -185 -117 -255 -310 -292 -117 -22 -315 -15 -379 14
-117 54 -221 165 -287 308 -46 99 -67 184 -76 306 -18 265 140 463 397 498 46
6 95 13 109 15 62 8 203 5 287 -8z m-8096 -30 c150 -46 205 -122 234 -330 35
-245 5 -443 -90 -591 -51 -80 -168 -198 -235 -239 -80 -47 -177 -76 -257 -76
-221 0 -374 253 -405 667 -8 113 -9 182 0 265 23 242 84 296 352 318 127 11
344 3 401 -14z m2487 -41 c50 -33 77 -89 68 -142 -17 -105 -17 -129 1 -182 23
-68 60 -100 97 -83 31 14 45 63 47 162 1 41 3 82 5 91 11 41 197 86 304 73
137 -16 212 -86 265 -249 26 -80 67 -329 85 -510 11 -117 29 -266 36 -301 6
-32 -17 -44 -95 -51 -80 -7 -70 -19 -91 112 -38 229 -131 534 -172 569 -20 16
-34 18 -108 13 -47 -4 -102 -11 -123 -17 -50 -15 -107 -67 -135 -123 -12 -25
-29 -50 -37 -57 -18 -15 -27 5 -45 92 -13 64 -44 98 -89 98 -122 0 -208 -233
-166 -450 21 -109 31 -245 17 -254 -17 -11 -177 -17 -191 -8 -35 25 -32 678 5
890 29 170 94 311 159 351 32 19 117 7 163 -24z m1627 25 l81 0 67 -169 c79
-196 84 -221 46 -231 -15 -4 -41 -18 -58 -31 -38 -28 -102 -37 -273 -38 -103
-1 -128 2 -128 13 0 9 29 21 83 35 45 12 101 30 125 41 41 19 42 21 42 69 0
49 -32 155 -50 166 -21 13 -149 21 -230 14 -71 -5 -100 -13 -147 -38 -69 -37
-110 -73 -124 -108 -13 -35 -11 -136 4 -156 7 -11 37 -21 77 -28 35 -5 66 -12
69 -15 2 -2 -4 -13 -15 -25 -25 -28 -19 -55 22 -106 113 -138 353 -255 555
-271 l94 -7 3 -137 3 -138 -28 -1 c-15 -1 -174 -1 -353 0 -358 2 -334 -3 -412
73 -51 50 -51 51 -89 325 -11 82 -36 227 -55 323 -38 187 -40 241 -9 331 9 25
30 60 48 77 32 31 34 31 152 35 66 2 187 3 269 1 82 -2 186 -4 231 -4z m-4969
-74 c8 -3 8 -20 1 -61 l-11 -57 -60 7 c-34 3 -111 15 -173 26 -61 10 -137 20
-168 20 -60 2 -72 11 -62 52 l6 22 228 -3 c125 -1 233 -4 239 -6z m7871 -125
c40 -4 77 -11 81 -16 5 -6 17 -72 26 -148 19 -149 65 -392 95 -496 40 -141 55
-222 42 -230 -7 -5 -85 -11 -174 -14 -141 -5 -164 -3 -174 11 -10 12 -13 119
-13 457 0 243 3 445 7 449 4 3 14 4 22 0 9 -3 49 -9 88 -13z m-8021 -76 c20
-4 21 -11 27 -257 3 -139 13 -327 22 -417 14 -135 14 -165 3 -172 -7 -5 -86
-9 -175 -9 l-161 0 -6 38 c-11 62 12 459 33 582 32 188 44 244 53 256 7 10
120 -1 204 -21z m4852 -42 c4 -30 -42 -43 -66 -19 -16 16 -16 18 3 32 28 20
59 14 63 -13z m2062 -75 c91 -27 142 -105 142 -218 1 -36 -6 -81 -14 -100 -20
-48 -71 -97 -109 -105 -49 -11 -132 3 -162 28 -57 48 -96 316 -55 379 24 36
107 43 198 16z m-4144 -18 l124 0 0 -117 c0 -163 16 -389 41 -572 11 -84 18
-156 15 -159 -10 -9 -336 14 -347 25 -7 7 -10 149 -10 414 1 414 2 427 39 414
8 -3 70 -5 138 -5z m-6688 -155 c7 -14 12 -45 12 -69 0 -72 -14 -79 -202 -89
-89 -5 -176 -6 -194 -3 -64 13 -80 94 -26 136 20 16 41 20 116 21 50 1 120 7
156 14 106 20 125 19 138 -10z m9184 -37 c35 -42 41 -62 33 -105 -5 -28 -13
-38 -43 -50 -64 -27 -204 2 -282 57 -31 22 -46 75 -29 97 24 28 101 43 199 39
93 -5 95 -5 122 -38z"/>
<path d="M9555 1681 l-40 -6 4 -260 c3 -263 14 -451 26 -463 4 -4 70 -7 148
-7 123 0 148 3 187 21 54 25 95 65 123 119 29 55 36 215 13 305 -31 120 -144
268 -221 289 -42 11 -171 13 -240 2z m250 -137 c60 -50 132 -157 144 -214 22
-96 8 -205 -31 -247 -30 -32 -110 -56 -162 -49 -55 9 -104 39 -117 74 -13 33
-18 374 -6 419 19 74 94 81 172 17z"/>
<path d="M5783 1491 c-65 -8 -80 -22 -98 -92 -17 -64 -19 -120 -5 -209 11 -71
34 -99 115 -143 35 -20 55 -22 175 -22 126 0 138 2 190 27 83 41 95 67 95 208
-1 126 -21 212 -55 230 -20 11 -331 11 -417 1z m317 -84 c38 -19 70 -74 70
-121 0 -74 -16 -110 -60 -135 -22 -12 -52 -38 -66 -57 -33 -43 -75 -45 -152
-6 -91 45 -132 109 -132 205 0 51 24 105 52 117 35 14 259 12 288 -3z"/>
<path d="M3248 1682 c-31 -4 -63 -13 -70 -20 -10 -9 -13 -54 -13 -165 l0 -152
190 2 c231 3 294 9 302 30 7 17 -28 132 -62 208 -41 88 -57 97 -182 100 -59 2
-134 0 -165 -3z m182 -107 c16 -8 37 -31 46 -51 17 -35 17 -37 0 -49 -31 -23
-121 -28 -161 -10 -31 15 -35 22 -35 56 0 32 5 41 28 53 35 20 85 20 122 1z"/>
<path d="M16737 1489 c-76 -8 -144 -42 -176 -88 -12 -16 -28 -57 -37 -92 -29
-112 2 -270 58 -300 33 -18 218 -24 299 -9 86 15 130 43 147 95 8 23 13 91 14
161 1 138 -14 186 -67 215 -37 20 -147 29 -238 18z m170 -116 c80 -86 69 -220
-22 -267 -70 -37 -198 -17 -238 35 -29 40 -33 107 -9 155 37 72 92 103 185
104 51 0 61 -4 84 -27z"/>
<path d="M8486 1587 c-65 -13 -126 -73 -152 -148 -16 -44 -19 -83 -19 -219 0
-153 2 -169 23 -212 37 -75 70 -93 172 -93 81 0 90 2 173 44 102 52 160 108
178 173 19 71 7 272 -20 333 -28 64 -75 112 -121 125 -44 12 -169 11 -234 -3z
m211 -97 c59 -36 100 -160 91 -279 -3 -49 -10 -68 -35 -98 -46 -57 -136 -106
-203 -110 -71 -5 -96 10 -129 72 -23 45 -26 61 -26 155 0 115 12 163 53 211
54 65 182 90 249 49z"/>
</g>
</svg>
