<?xml version="1.0" standalone="no"?>
<!DOCTYPE svg PUBLIC "-//W3C//DTD SVG 20010904//EN"
 "http://www.w3.org/TR/2001/REC-SVG-20010904/DTD/svg10.dtd">
<svg version="1.0" xmlns="http://www.w3.org/2000/svg"
 width="544.000000pt" height="91.000000pt" viewBox="0 0 544.000000 91.000000"
 preserveAspectRatio="xMidYMid meet">

<g transform="translate(0.000000,91.000000) scale(0.100000,-0.100000)"
fill="#000000" stroke="none">
<path d="M555 820 c-10 -11 -20 -41 -23 -69 l-4 -49 -102 -7 c-55 -3 -152 -9
-215 -13 -93 -6 -116 -10 -125 -24 -13 -22 -2 -43 38 -72 20 -16 46 -22 104
-24 42 -2 83 -9 90 -14 9 -8 12 -59 12 -192 0 -148 3 -186 16 -204 20 -28 55
-28 82 1 36 38 46 105 39 263 -6 137 -6 143 14 149 44 14 49 -6 49 -189 0 -94
3 -181 6 -194 8 -28 43 -37 97 -26 l42 9 5 70 c8 117 25 123 68 25 33 -73 52
-90 102 -90 17 0 48 -9 70 -20 29 -15 59 -20 113 -20 65 0 76 -3 88 -21 12
-18 25 -21 92 -22 89 -2 97 3 97 73 0 25 5 62 11 82 11 42 27 47 69 23 35 -20
38 -19 76 22 23 25 37 34 44 27 6 -6 17 -50 25 -98 7 -48 19 -94 26 -102 9
-11 28 -14 68 -12 l56 3 6 42 c3 24 7 45 10 47 4 4 113 9 147 7 6 -1 12 -12
12 -25 0 -42 20 -49 127 -41 54 4 103 12 110 17 7 6 9 34 6 88 -9 126 23 206
79 198 26 -3 25 1 12 -176 -8 -118 -3 -126 84 -120 60 4 73 10 86 43 2 6 16
-2 32 -16 41 -37 67 -49 109 -49 43 0 65 11 127 62 25 21 49 35 51 31 3 -4 8
-34 12 -67 l8 -59 71 6 c91 7 153 34 199 87 19 23 40 39 46 36 5 -4 13 -26 16
-51 7 -43 8 -44 49 -50 22 -3 82 -5 131 -3 l90 3 1 78 c0 42 4 80 7 84 4 3 19
0 33 -8 24 -13 27 -12 52 19 49 59 82 37 97 -63 4 -22 11 -55 17 -72 9 -30 13
-33 47 -33 20 0 42 5 48 11 7 7 75 10 194 10 101 -1 189 2 195 6 7 5 13 41 16
80 4 76 21 109 49 98 23 -9 48 -58 59 -116 15 -79 16 -79 149 -79 137 0 205
16 256 62 l35 30 15 -36 15 -36 65 0 c52 0 68 4 84 21 l19 20 41 -20 c47 -25
108 -27 175 -7 26 8 63 12 81 9 19 -3 45 -3 59 1 23 6 26 12 26 51 0 63 14 95
44 95 31 0 42 -15 64 -86 15 -50 22 -60 47 -67 19 -5 41 -4 59 3 l29 11 -5
127 c-6 145 -19 187 -69 223 -32 23 -41 24 -159 22 -69 -2 -162 -3 -208 -2
-102 0 -157 -14 -200 -52 -58 -51 -86 -35 -42 24 37 50 38 89 5 122 -42 43
-123 29 -145 -25 -9 -22 -17 -29 -29 -25 -9 4 -61 9 -116 12 -119 7 -162 -7
-197 -61 -15 -24 -28 -34 -38 -30 -35 14 -88 24 -137 24 -40 0 -57 5 -72 21
-30 32 -99 29 -126 -5 -20 -25 -25 -26 -127 -26 -96 0 -111 -2 -142 -24 -31
-21 -40 -22 -80 -13 -30 7 -57 7 -85 0 -37 -10 -43 -8 -66 13 -54 50 -113 20
-136 -69 -12 -49 -26 -67 -38 -49 -4 6 -36 15 -71 19 -58 7 -65 11 -68 31 -7
45 1 50 67 39 82 -13 95 -3 89 74 -2 31 -12 68 -21 83 -15 22 -25 26 -66 26
-52 0 -71 -13 -91 -65 l-12 -30 -52 59 -52 58 -90 5 c-51 2 -95 0 -104 -6 -11
-7 -14 -27 -12 -78 3 -88 -5 -101 -50 -82 -22 9 -68 14 -143 13 -72 -1 -113 2
-117 10 -4 6 -8 30 -8 53 0 54 -22 68 -97 60 -65 -7 -81 -18 -85 -60 -3 -29
-7 -32 -48 -39 -25 -4 -57 -17 -72 -28 -35 -26 -35 -26 -53 10 -18 34 -53 40
-80 14 -15 -15 -19 -15 -55 1 -60 27 -151 18 -235 -25 -76 -38 -75 -39 -95 48
-23 104 -42 102 -85 -6 -46 -115 -54 -132 -64 -132 -5 0 -37 42 -71 93 -66 96
-99 137 -111 137 -11 0 -20 -40 -28 -143 -5 -54 -11 -101 -14 -103 -3 -3 -24
15 -47 39 -43 47 -102 81 -161 92 -28 5 -42 1 -79 -24 -41 -27 -46 -28 -72
-15 -15 8 -55 14 -93 14 -70 0 -88 16 -40 38 21 10 25 19 25 51 0 27 -6 44
-19 53 -12 9 -20 32 -25 71 -11 88 -66 126 -111 77z m62 -18 c15 -10 28 -98
15 -106 -5 -3 -24 -3 -42 1 -32 6 -32 7 -26 50 8 63 21 76 53 55z m37 -152
c16 -6 26 -17 26 -30 0 -18 -6 -20 -59 -20 -32 0 -86 -3 -121 -7 l-63 -6 6
-146 c3 -80 1 -168 -4 -196 -10 -55 -38 -91 -63 -82 -14 6 -16 34 -16 217 l0
210 -100 0 c-87 0 -103 3 -120 20 -11 11 -20 24 -20 30 0 17 492 26 534 10z
m2217 2 c18 -7 86 -90 110 -132 9 -17 13 -61 14 -135 0 -95 -3 -116 -22 -152
-12 -22 -35 -51 -49 -62 -29 -23 -107 -48 -164 -53 l-35 -3 -3 273 -4 272 69
-1 c37 0 75 -3 84 -7z m1822 -45 c13 -41 -13 -77 -58 -77 -38 0 -46 8 -47 50
-1 42 19 62 60 58 29 -2 37 -8 45 -31z m-1549 8 c3 -8 8 -37 12 -65 l7 -50
-45 0 c-25 0 -50 6 -56 13 -16 19 -25 64 -18 92 6 22 12 25 50 25 30 0 46 -5
50 -15z m-804 -44 c0 -46 -1 -49 -31 -55 -77 -15 -89 -6 -89 65 l0 39 60 0 60
0 0 -49z m-1015 -86 c44 -62 83 -114 87 -114 3 -1 26 48 50 109 23 60 45 110
48 110 3 0 29 -74 58 -163 29 -89 64 -189 77 -221 13 -33 22 -63 19 -68 -3 -4
-23 -8 -44 -8 -45 0 -40 -10 -65 140 -27 160 -38 168 -94 72 -19 -31 -35 -59
-37 -61 -2 -2 -27 15 -55 38 -29 23 -56 38 -59 34 -9 -10 -30 -150 -30 -197
l0 -34 -56 -4 c-64 -3 -74 4 -46 35 16 18 20 42 25 132 8 138 28 315 36 315 3
0 42 -52 86 -115z m3154 89 c53 -11 34 -24 -33 -24 -66 0 -82 -9 -86 -45 -5
-43 1 -54 33 -64 65 -22 127 -107 127 -175 0 -26 -7 -40 -31 -60 -38 -32 -66
-40 -154 -40 l-70 -1 0 35 c0 35 0 35 48 38 45 3 50 6 63 38 28 67 -11 144
-72 144 -34 0 -64 34 -64 73 0 36 13 58 45 75 22 12 144 16 194 6z m-3859 -79
c0 -74 11 -82 42 -30 20 36 21 36 82 33 l61 -3 25 -50 c20 -40 25 -69 28 -148
l4 -99 -28 4 c-30 3 -31 5 -73 101 -30 67 -30 67 -70 67 l-41 0 0 -89 c0 -94
-4 -101 -53 -101 -38 0 -47 40 -47 217 l0 163 35 0 35 0 0 -65z m3312 5 c-4
-46 -3 -50 17 -50 16 0 21 6 21 25 0 18 7 26 25 31 45 11 134 -1 163 -23 39
-29 64 -111 69 -225 l4 -98 -41 0 c-39 0 -40 1 -40 35 0 79 -52 155 -107 155
-29 0 -36 -5 -49 -35 -7 -19 -14 -60 -14 -90 l0 -56 -37 3 c-38 3 -38 3 -41
53 -2 27 -7 52 -11 55 -15 9 -23 50 -10 50 12 0 9 78 -7 178 l-7 42 35 0 35 0
-5 -50z m-2052 10 c52 -74 70 -135 70 -245 0 -98 -1 -105 -20 -105 -11 0 -23
-1 -27 -2 -5 -2 -11 24 -15 56 -4 32 -10 61 -12 64 -3 2 -19 -7 -36 -22 -27
-22 -41 -26 -99 -26 l-67 0 -37 103 c-21 56 -37 107 -37 113 1 39 116 93 202
94 52 0 59 -3 78 -30z m100 20 c0 -5 9 -34 21 -65 17 -47 24 -56 42 -53 18 2
21 9 19 31 -3 19 5 35 27 57 37 38 68 39 82 4 5 -15 8 -28 7 -29 -2 -1 -18 -8
-37 -15 -54 -22 -74 -80 -69 -196 l4 -94 -33 0 c-23 0 -35 5 -39 18 -3 9 -10
25 -15 34 -5 10 -9 50 -10 90 0 40 -4 108 -7 151 -4 42 -4 77 0 77 5 0 8 -4 8
-10z m-941 -25 c34 -17 89 -73 97 -98 9 -29 -7 -38 -76 -44 l-62 -6 6 -30 c3
-16 6 -38 6 -48 0 -17 8 -19 65 -19 l65 0 0 -44 c0 -41 -2 -44 -31 -50 -17 -3
-63 -6 -100 -6 -67 0 -70 1 -89 32 -15 25 -20 51 -20 106 0 42 -6 88 -15 109
-21 50 -19 61 17 95 28 26 37 29 71 24 22 -4 51 -13 66 -21z m3541 6 c21 -17
22 -21 10 -37 -11 -12 -15 -43 -15 -106 0 -86 -11 -110 -26 -56 -9 35 -61 98
-109 134 -27 19 -39 36 -38 49 3 17 13 21 73 26 39 3 72 6 75 7 3 1 16 -7 30
-17z m505 -1 c-7 -23 12 -63 26 -55 5 4 9 17 9 30 0 42 61 57 142 34 26 -7 43
-19 53 -39 18 -34 35 -142 35 -222 0 -53 -2 -58 -24 -64 -36 -9 -42 -1 -55 64
-15 80 -29 97 -80 97 -57 0 -74 -21 -79 -95 -4 -59 -5 -60 -34 -60 -25 0 -29
3 -23 18 4 9 9 56 12 104 5 77 -2 138 -23 192 -5 12 0 16 21 16 22 0 25 -3 20
-20z m-91 -11 c33 -31 49 -208 23 -259 -18 -36 -73 -60 -136 -60 -50 0 -57 3
-96 43 -79 79 -87 197 -17 260 10 10 39 22 63 27 49 10 149 3 163 -11z m-2379
-3 c90 -38 68 -250 -33 -320 -111 -77 -202 11 -202 195 0 80 13 115 49 128 40
14 148 13 186 -3z m713 -8 c7 -7 12 -30 12 -52 0 -23 4 -47 9 -55 14 -22 31
-3 31 35 0 28 5 36 26 44 62 24 116 3 139 -55 14 -32 42 -241 34 -249 -2 -2
-13 -6 -23 -8 -17 -2 -21 7 -32 62 -7 36 -20 82 -28 103 -14 31 -21 37 -47 37
-20 0 -40 -10 -60 -29 l-29 -29 -13 26 c-17 37 -39 34 -60 -8 -14 -28 -16 -49
-11 -102 l7 -68 -32 0 -31 0 0 104 c0 115 13 198 35 233 17 25 54 30 73 11z
m492 7 c0 -2 9 -27 20 -54 l20 -51 -30 -15 c-31 -16 -115 -21 -106 -6 3 4 19
11 36 14 30 7 38 25 24 61 -8 22 -101 22 -132 0 -29 -20 -30 -70 -2 -79 11 -4
18 -11 15 -16 -15 -23 87 -90 157 -103 30 -5 38 -12 43 -36 4 -16 4 -34 0 -40
-3 -6 -47 -10 -103 -10 -131 1 -135 4 -158 140 -33 198 -32 200 112 200 57 0
104 -2 104 -5z m-1470 -30 c0 -17 -15 -18 -84 -9 -67 10 -56 24 19 24 51 0 65
-3 65 -15z m2314 -47 c3 -13 12 -61 20 -108 9 -47 19 -95 22 -107 6 -22 4 -23
-50 -23 l-56 0 0 130 0 130 30 0 c23 0 31 -5 34 -22z m-2358 -2 c1 -1 5 -56 9
-123 l7 -123 -51 0 -51 0 0 58 c0 52 14 156 25 190 3 8 14 10 32 6 16 -4 29
-7 29 -8z m1409 -6 c3 -5 1 -10 -4 -10 -6 0 -11 5 -11 10 0 6 2 10 4 10 3 0 8
-4 11 -10z m615 -30 c27 -14 35 -65 16 -95 -18 -27 -57 -33 -74 -12 -14 16
-26 83 -18 102 6 17 48 20 76 5z m-1177 -122 c3 -67 5 -123 3 -125 -1 -2 -24
0 -49 3 l-47 7 0 118 0 119 43 0 44 0 6 -122z m-1985 60 c-3 -21 -9 -23 -65
-26 -57 -3 -63 -1 -63 17 0 20 18 26 98 29 29 2 33 -1 30 -20z m2667 6 c22
-23 14 -38 -23 -42 -36 -4 -72 13 -72 33 0 26 71 33 95 9z"/>
<path d="M2767 473 c-3 -5 -2 -53 1 -108 l7 -100 41 -3 c29 -2 47 3 67 18 23
18 27 29 27 74 0 51 -15 87 -48 114 -17 13 -88 17 -95 5z m91 -45 c56 -61 46
-133 -18 -133 l-35 0 -3 64 c-2 35 -1 70 2 77 8 21 30 17 54 -8z"/>
<path d="M1657 413 c-4 -3 -7 -28 -7 -54 0 -58 15 -69 89 -69 59 0 81 17 81
65 0 61 -5 65 -84 65 -40 0 -76 -3 -79 -7z m131 -47 c8 -70 -95 -91 -112 -22
-11 45 1 57 58 54 48 -3 51 -5 54 -32z"/>
<path d="M927 473 c-4 -3 -7 -26 -7 -50 l0 -43 70 0 c78 0 81 4 56 65 -14 33
-18 35 -64 35 -27 0 -52 -3 -55 -7z m81 -45 c3 -13 -3 -18 -22 -18 -27 0 -41
14 -31 31 10 16 49 6 53 -13z"/>
<path d="M4821 401 c-13 -13 -21 -34 -21 -55 0 -60 6 -66 70 -66 71 0 82 11
78 82 l-3 53 -52 3 c-42 2 -56 -1 -72 -17z m93 -17 c9 -8 16 -24 16 -34 0 -19
-25 -50 -40 -50 -5 0 -20 4 -34 10 -33 12 -35 53 -4 74 28 20 43 20 62 0z"/>
<path d="M2437 432 c-38 -42 -29 -164 14 -177 29 -9 86 13 109 42 24 31 26 83
5 123 -14 27 -20 30 -64 30 -33 0 -53 -5 -64 -18z m95 -19 c9 -10 19 -32 23
-50 5 -27 2 -37 -19 -58 -27 -27 -64 -33 -84 -13 -16 16 -15 90 1 110 24 30
58 35 79 11z"/>
</g>
</svg>
