<?xml version="1.0" standalone="no"?>
<!DOCTYPE svg PUBLIC "-//W3C//DTD SVG 20010904//EN"
 "http://www.w3.org/TR/2001/REC-SVG-20010904/DTD/svg10.dtd">
<svg version="1.0" xmlns="http://www.w3.org/2000/svg"
 width="225.000000pt" height="224.000000pt" viewBox="0 0 225.000000 224.000000"
 preserveAspectRatio="xMidYMid meet">

<g transform="translate(0.000000,224.000000) scale(0.100000,-0.100000)"
fill="#000000" stroke="none">
<path d="M805 1461 c-3 -11 -30 -64 -59 -118 -120 -222 -443 -834 -451 -853
-8 -22 54 -58 66 -39 5 8 58 100 118 204 60 105 119 209 132 230 12 22 40 72
62 110 22 39 49 87 61 107 12 21 31 40 46 43 27 7 42 -8 172 -162 33 -40 65
-73 70 -73 5 0 28 14 51 31 215 157 215 157 279 72 23 -32 96 -120 160 -196
l118 -137 0 -110 c0 -107 1 -110 23 -111 21 -1 21 -1 -3 -9 -17 -6 0 -8 55 -9
55 0 75 2 65 9 -8 5 -32 10 -52 10 -21 0 -38 4 -38 10 0 8 41 6 78 -6 18 -5
22 -27 -63 331 -8 33 -33 141 -55 240 -23 99 -55 237 -71 306 l-30 127 -72 7
-71 7 -51 -54 c-27 -30 -94 -102 -149 -161 -79 -86 -104 -107 -126 -107 -36 0
-43 10 -71 110 -13 47 -33 112 -44 145 l-20 60 -62 3 c-54 3 -62 0 -68 -17z
m915 -963 c0 -18 -2 -20 -9 -8 -6 8 -7 18 -5 22 9 14 14 9 14 -14z m40 -10 c0
-5 -4 -8 -10 -8 -5 0 -10 10 -10 23 0 18 2 19 10 7 5 -8 10 -18 10 -22z m-90
-9 c0 -5 -4 -9 -10 -9 -5 0 -10 7 -10 16 0 8 5 12 10 9 6 -3 10 -10 10 -16z"/>
</g>
</svg>
